<svg version="1.0" xmlns="http://www.w3.org/2000/svg"
 width="980.000000pt" height="500.000000pt" viewBox="0 0 980.000000 500.000000"
 preserveAspectRatio="xMidYMid meet">
<g transform="translate(0.000000,500.000000) scale(0.100000,-0.100000)"
fill="#61DAFB" stroke="none">
<path d="M4991 4986 c-52 -29 -50 -1 -51 -884 0 -900 -2 -866 58 -891 37 -16
77 -5 102 26 20 25 20 43 20 865 l0 840 -29 29 c-32 31 -62 36 -100 15z"/>
<path d="M3355 4258 c-30 -17 -44 -40 -45 -69 0 -34 486 -1208 511 -1234 13
-13 32 -20 59 -20 50 0 93 39 93 82 0 33 -486 1208 -510 1235 -18 21 -77 24
-108 6z"/>
<path d="M6683 4250 c-20 -23 -512 -1207 -513 -1232 0 -10 13 -32 29 -50 24
-27 36 -33 70 -33 24 0 47 7 56 16 20 20 515 1212 515 1240 0 11 -13 34 -29
50 -37 36 -101 41 -128 9z"/>
<path d="M1705 3575 c-19 -18 -25 -35 -25 -67 l0 -42 573 -574 c314 -315 587
-582 605 -594 64 -40 137 -2 137 73 0 39 -10 49 -595 634 -577 577 -597 595
-633 595 -27 0 -45 -7 -62 -25z"/>
<path d="M7733 3008 c-413 -413 -594 -600 -598 -620 -14 -61 44 -116 108 -103
25 6 154 129 620 594 l587 586 0 43 c0 57 -33 92 -87 92 -36 0 -56 -18 -630
-592z"/>
<path d="M4760 2723 c-611 -67 -1170 -333 -1596 -759 -110 -110 -144 -155
-144 -191 0 -59 48 -103 111 -103 27 0 51 19 173 138 227 223 386 338 645 467
671 335 1454 337 2137 4 476 -232 861 -614 1104 -1097 149 -298 229 -599 250
-950 5 -89 14 -171 20 -182 6 -11 25 -27 42 -36 43 -22 90 -11 124 29 l27 32
-6 145 c-20 491 -176 958 -455 1365 -105 154 -178 242 -312 376 -424 425 -980
693 -1572 758 -90 10 -468 13 -548 4z"/>
<path d="M1787 2169 c-315 -36 -609 -269 -699 -554 -12 -38 -23 -71 -24 -73
-1 -1 -24 6 -51 17 -172 68 -387 65 -558 -6 -239 -100 -418 -338 -449 -595
l-7 -58 1730 0 1731 0 0 68 c0 126 -48 241 -142 338 -104 108 -241 161 -388
151 -41 -4 -95 -13 -119 -22 -52 -18 -56 -15 -64 55 -9 73 -53 197 -99 275
-57 96 -192 230 -293 289 -96 56 -232 101 -346 116 -92 11 -122 11 -222 -1z"/>
<path d="M8437 1691 c-324 -153 -593 -284 -598 -292 -5 -8 -9 -31 -9 -52 0
-45 43 -97 80 -97 32 0 1192 546 1213 571 9 12 17 37 17 56 0 45 -46 93 -87
92 -15 0 -293 -125 -616 -278z"/>
<path d="M2466 634 c-14 -15 -26 -29 -26 -33 0 -3 -7 -44 -15 -91 -8 -47 -20
-158 -25 -247 -9 -136 -8 -168 4 -197 28 -68 116 -84 166 -31 22 23 25 38 32
168 4 78 15 191 23 251 9 60 13 121 10 137 -15 68 -117 94 -169 43z"/>
<path d="M289 275 c-56 -30 -60 -108 -8 -147 23 -17 69 -18 859 -18 801 0 836
0 860 18 53 40 48 117 -11 147 -41 22 -1661 22 -1700 0z"/>
<path d="M8070 283 c-24 -9 -52 -36 -61 -61 -11 -29 11 -86 39 -101 14 -7 281
-11 853 -11 800 0 835 0 859 18 53 40 52 109 -3 142 -31 19 -54 20 -852 19
-451 0 -827 -3 -835 -6z"/>
</g>
</svg>
